<?xml version="1.0" encoding="iso-8859-1"?>
<!-- Generator: Adobe Illustrator 17.1.0, SVG Export Plug-In . SVG Version: 6.00 Build 0)  -->
<!DOCTYPE svg PUBLIC "-//W3C//DTD SVG 1.1//EN" "http://www.w3.org/Graphics/SVG/1.1/DTD/svg11.dtd">
<svg version="1.1" id="Capa_1" xmlns="http://www.w3.org/2000/svg" xmlns:xlink="http://www.w3.org/1999/xlink" x="0px" y="0px"
	 viewBox="0 0 213.635 213.635" style="enable-background:new 0 0 213.635 213.635;" xml:space="preserve">
<path d="M142.217,204.608H94.226c-4.064,0-7.371-3.274-7.371-7.299v-3.52c0-2.268,0.495-6.451,1.181-12.243
	c1.292-10.911,3.244-27.401,3.244-43.458c0-15.149-2.22-28.881-3.842-38.907c-0.993-6.141-1.777-10.99-1.777-14.351
	c0-6.013,4.714-11.737,9.706-17.798c3.188-3.871,6.485-7.874,8.433-11.858c3.941-8.063,4.477-22.144,4.545-26.585l-1.877-1.536
	c-0.696-0.569-1.1-1.422-1.1-2.321V12.027c0-1.657,1.343-3,3-3h19.708c1.657,0,3,1.343,3,3v12.704c0,0.899-0.404,1.752-1.101,2.322
	l-1.877,1.535c0.068,4.441,0.604,18.522,4.545,26.585c1.948,3.984,5.245,7.988,8.434,11.859c4.991,6.06,9.706,11.784,9.706,17.797
	c0,3.36-0.784,8.21-1.777,14.351c-1.621,10.026-3.842,23.759-3.842,38.907c0,16.057,1.952,32.546,3.244,43.458
	c0.686,5.792,1.181,9.976,1.181,12.243v3.52C149.588,201.333,146.281,204.608,142.217,204.608z M112.41,47.765
	c-0.749,3.592-1.786,7.11-3.22,10.044c-2.258,4.619-5.783,8.899-9.192,13.038c-4.099,4.978-8.337,10.123-8.337,13.983
	c0,2.878,0.75,7.519,1.7,13.393c1.654,10.228,3.918,24.234,3.918,39.865c0,16.41-1.977,33.111-3.285,44.163
	c-0.636,5.378-1.139,9.625-1.139,11.538v3.52c0,0.716,0.615,1.299,1.371,1.299h47.991c0.756,0,1.371-0.583,1.371-1.299v-3.52
	c0-1.913-0.503-6.16-1.14-11.538c-1.308-11.052-3.285-27.753-3.285-44.163c0-15.631,2.265-29.638,3.919-39.865
	c0.95-5.874,1.7-10.515,1.7-13.393c0-3.859-4.238-9.006-8.338-13.982c-3.409-4.14-6.934-8.419-9.192-13.039
	c-1.434-2.934-2.471-6.452-3.22-10.044H112.41z M113.416,41.765h9.61c-0.687-5.219-0.875-9.966-0.924-12.567h-7.763
	C114.291,31.799,114.103,36.546,113.416,41.765z M111.367,23.197h13.708v-8.17h-13.708V23.197z M210.635,202.567h-48.333
	c-1.657,0-3-1.343-3-3V96.233c0-11.201,7.022-21.308,17.333-25.323V14.067c0-1.657,1.343-3,3-3h13.667c1.657,0,3,1.343,3,3V70.91
	c10.311,4.016,17.333,14.122,17.333,25.323v103.334C213.635,201.225,212.292,202.567,210.635,202.567z M165.302,196.567h42.333
	v-15.833h-27c-1.657,0-3-1.343-3-3v-69.288c0-1.657,1.343-3,3-3h27v-9.213c0-9.322-6.242-17.671-15.181-20.302
	c-1.276-0.376-2.152-1.548-2.152-2.878V52.567h-7.667v20.486c0,1.33-0.876,2.502-2.152,2.878
	c-8.938,2.631-15.181,10.979-15.181,20.302V196.567z M183.635,174.734h24v-63.288h-24V174.734z M182.635,46.567h7.667v-29.5h-7.667
	V46.567z M61.702,202.567H20.941c-1.226,0-2.328-0.746-2.785-1.884c-0.509-1.271-12.517-31.229-15.646-39.836
	c-5.977-16.442-1.269-30.761,13.994-42.559c9.539-7.373,12.859-43.349,13.495-59.682c-2.731-0.997-4.687-3.62-4.687-6.691
	c0-3.926,3.194-7.12,7.12-7.12h17.779c3.926,0,7.12,3.194,7.12,7.12c0,3.071-1.956,5.694-4.687,6.691
	c0.636,16.333,3.956,52.309,13.495,59.683c14.119,10.913,19.483,27.215,13.999,42.543l0,0c-3.089,8.633-15.141,38.584-15.652,39.854
	C64.028,201.823,62.926,202.567,61.702,202.567z M22.971,196.567h36.703c2.752-6.855,12.205-30.463,14.814-37.756
	c4.579-12.797-0.027-26.506-12.019-35.774c-14.164-10.949-15.771-61.232-15.908-66.93c-0.02-0.809,0.288-1.59,0.853-2.168
	s1.338-0.904,2.146-0.904h0.65c0.617,0,1.12-0.502,1.12-1.119s-0.502-1.12-1.12-1.12H32.432c-0.617,0-1.12,0.503-1.12,1.12
	s0.502,1.119,1.12,1.119h0.65c0.808,0,1.582,0.326,2.146,0.904s0.872,1.359,0.853,2.168c-0.137,5.697-1.744,55.98-15.908,66.929
	C7.029,133.197,3.095,144.895,8.149,158.797C10.798,166.084,20.226,189.705,22.971,196.567z M99.936,196.689
	c-0.865,0-1.724-0.372-2.316-1.091c-1.051-1.276-0.875-3.161,0.399-4.216c0.364-0.302,9.047-7.382,20.628-7.382
	c11.619,0,19.5,6.723,19.829,7.009c1.252,1.086,1.386,2.98,0.3,4.231c-1.084,1.25-2.975,1.385-4.227,0.305
	c-0.156-0.132-6.659-5.545-15.902-5.545c-9.367,0-16.733,5.947-16.807,6.008C101.281,196.465,100.607,196.689,99.936,196.689z
	 M118.221,174.04c-2.641,0-5.282-0.225-7.905-0.674l-6.392-1.096c-1.44-0.247-2.493-1.496-2.493-2.957V134.64
	c0-0.87,0.377-1.696,1.034-2.267c0.657-0.569,1.528-0.827,2.39-0.703l7.597,1.085c0,0,0,0,0.001,0c3.825,0.547,7.709,0.547,11.536,0
	l7.599-1.085c0.865-0.125,1.733,0.134,2.39,0.703c0.657,0.57,1.034,1.396,1.034,2.267v34.674c0,1.461-1.053,2.71-2.493,2.957
	l-6.393,1.096C123.503,173.816,120.863,174.04,118.221,174.04z M107.431,166.784l3.898,0.668c4.573,0.783,9.212,0.783,13.783,0
	l3.899-0.668v-28.686l-4.174,0.596c-4.39,0.628-8.843,0.627-13.234,0l-4.173-0.596V166.784z M41.134,167.775
	c-14.406,0-26.127-8.57-26.127-19.105s11.721-19.105,26.127-19.105s26.127,8.57,26.127,19.105S55.541,167.775,41.134,167.775z
	 M41.134,135.564c-10.91,0-20.127,6.002-20.127,13.105s9.217,13.105,20.127,13.105s20.127-6.002,20.127-13.105
	S52.045,135.564,41.134,135.564z M118.221,113.829c-3.979,0-7.595-1.912-9.826-5.096h-8.242c-1.657,0-3-1.343-3-3v-7.876
	c0-1.657,1.343-3,3-3h8.242c2.232-3.184,5.847-5.096,9.826-5.096c3.979,0,7.595,1.912,9.826,5.096h8.242c1.657,0,3,1.343,3,3v7.876
	c0,1.657-1.343,3-3,3h-8.241C125.817,111.917,122.2,113.829,118.221,113.829z M103.154,102.733h6.947
	c1.148,0,2.196,0.656,2.698,1.689c1.021,2.101,3.099,3.406,5.422,3.406c2.324,0,4.402-1.306,5.423-3.406
	c0.502-1.033,1.55-1.689,2.698-1.689h6.947v-1.876h-6.947c-1.148,0-2.196-0.656-2.698-1.688c-1.021-2.102-3.099-3.407-5.423-3.407
	c-2.323,0-4.4,1.306-5.422,3.407c-0.502,1.032-1.55,1.688-2.698,1.688h-6.947V102.733z M97.349,86.764
	c-0.863,0-1.719-0.37-2.312-1.087c-1.057-1.275-0.879-3.167,0.397-4.224c0.411-0.34,10.207-8.328,23.273-8.328
	c13.105,0,21.982,7.573,22.354,7.896c1.252,1.086,1.386,2.98,0.3,4.231c-1.084,1.251-2.976,1.384-4.226,0.305
	c-0.132-0.111-7.673-6.432-18.428-6.432c-10.929,0-19.362,6.88-19.446,6.949C98.701,86.538,98.023,86.764,97.349,86.764z"/>
<g>
</g>
<g>
</g>
<g>
</g>
<g>
</g>
<g>
</g>
<g>
</g>
<g>
</g>
<g>
</g>
<g>
</g>
<g>
</g>
<g>
</g>
<g>
</g>
<g>
</g>
<g>
</g>
<g>
</g>
</svg>
